<svg width="27.444mm" height="4.7038mm" version="1.1" viewBox="0 0 27.444 4.7038" xmlns="http://www.w3.org/2000/svg">
 <g transform="translate(-75.501 -117.85)">
  <g stroke-width=".26458">
   <path d="m75.501 120.99 1.6021-0.70776 0.92207 0.53075 0.18627 1.7418-1.1364-9e-3 0.16775-1.211-0.19579-0.11166-0.95911 0.74533z" fill="#f55"/>
   <path d="m78.127 120.74 1.416 1.034 0.5588-0.99668-1.1364-0.45641v-0.22357l1.1364-0.46567-0.5588-0.98742-1.416 1.034z" fill="#333"/>
   <path d="m78.025 119.59 0.18627-1.7418-1.1364 0.0185 0.16775 1.211-0.19579 0.11165-0.96838-0.74506-0.57785 0.96864 1.6021 0.70802 0.92207-0.53102z" fill="#ffe680"/>
  </g>
  <g transform="translate(-.056254 -3.2554)">
   <rect x="81.175" y="121.75" width="13.426" height="3.4128" fill="#fc0" stroke-linejoin="round" stroke-width=".52917"/>
   <rect x="94.59" y="121.84" width="8.3229" height="3.2359" fill="none" stroke="#fc0" stroke-linecap="square" stroke-miterlimit="3" stroke-width=".1771"/>
  </g>
  <g stroke-width=".26458">
   <path d="m81.978 120.63h-0.4572v0.0921q0 0.31432 0.1651 0.4826 0.16828 0.16827 0.55562 0.16827 0.37148 0 0.57785-0.16192 0.20955-0.1651 0.20955-0.52388 0-0.10477-0.01905-0.1905-0.01905-0.0857-0.06985-0.15557-0.04762-0.073-0.13018-0.13335-0.08255-0.0635-0.21272-0.12065l-0.35242-0.1524q-0.14605-0.0603-0.1905-0.13018-0.04445-0.073-0.04445-0.1778 0-0.0508 0.0095-0.0984 0.0127-0.0476 0.04127-0.0825 0.03175-0.0381 0.08255-0.0603t0.127-0.0222q0.13335 0 0.1905 0.0889 0.05715 0.0857 0.05715 0.24765h0.43815v-0.0635q0-0.16193-0.05398-0.27623-0.0508-0.11747-0.14605-0.1905-0.09207-0.0762-0.22225-0.10795-0.127-0.0349-0.2794-0.0349-0.32702 0-0.51435 0.1651t-0.18732 0.50165q0 0.1397 0.03493 0.24765 0.03493 0.10477 0.10795 0.18732 0.0762 0.0794 0.18732 0.1397t0.26352 0.11113q0.1143 0.0381 0.1905 0.0762 0.07937 0.0349 0.127 0.0794 0.04762 0.0444 0.06667 0.1016 0.02223 0.054 0.02223 0.13018 0 0.14287-0.08572 0.21272-0.08255 0.0667-0.18732 0.0667-0.0889 0-0.14922-0.0254-0.05715-0.0254-0.09207-0.0699-0.03493-0.0444-0.04763-0.10795-0.0127-0.0667-0.0127-0.14605z"/>
   <path d="m83.691 120.85h-0.4191v0.4953h0.4191z"/>
   <path d="m84.031 119.08v2.267h0.4191v-1.8098h0.0064l0.40322 1.8098h0.3556l0.40322-1.8098h0.0063v1.8098h0.4191v-2.267h-0.67628l-0.32702 1.6002h-0.0063l-0.32385-1.6002z"/>
   <path d="m86.804 120.85h-0.4191v0.4953h0.4191z"/>
   <path d="m88.081 120.49-0.21908-1.0192h-0.0063l-0.21908 1.0192zm0.06032-1.4129 0.60008 2.267h-0.47625l-0.10478-0.47943h-0.60325l-0.10478 0.47943h-0.47625l0.60008-2.267z"/>
   <path d="m89.334 120.85h-0.4191v0.4953h0.4191z"/>
   <path d="m89.665 119.08v2.267h0.4572v-0.95885h0.24448q0.14288 0 0.2032 0.0762 0.06032 0.0762 0.06667 0.20955l0.0127 0.43497q0.0032 0.0667 0.0127 0.13018 0.0095 0.0603 0.04445 0.10795h0.4953v-0.019q-0.0635-0.0349-0.08255-0.13018-0.0127-0.0953-0.01905-0.27622-0.0032-0.0921-0.0063-0.1651-0.0032-0.0762-0.0095-0.1397-0.01905-0.1905-0.09843-0.27623-0.07937-0.0857-0.25082-0.11112v-6e-3q0.19368-0.0413 0.28575-0.18415 0.09208-0.14605 0.09208-0.37465 0-0.29528-0.15875-0.43815-0.15875-0.14605-0.4445-0.14605zm0.4572 0.9906v-0.65405h0.2159q0.3175 0 0.3175 0.31432 0 0.18415-0.0889 0.26353-0.0889 0.0762-0.254 0.0762z"/>
   <path d="m91.864 120.85h-0.4191v0.4953h0.4191z"/>
   <path d="m93.522 119.08h-1.4478v0.37465h0.4953v1.8923h0.4572v-1.8923h0.4953z"/>
   <path d="m93.857 120.85h-0.4191v0.4953h0.4191z"/>
   <path d="m94.846 119.08v2.267h0.4191v-1.8098h0.0063l0.40322 1.8098h0.3556l0.40322-1.8098h0.0064v1.8098h0.4191v-2.267h-0.67628l-0.32702 1.6002h-0.0063l-0.32385-1.6002z"/>
   <path d="m97.19 119.05v0.37465h0.43815v-0.37465zm0 0.5842v1.7082h0.43815v-1.7082z"/>
   <path d="m97.937 119.63v1.7082h0.43815v-1.1335q0-0.28257 0.23178-0.28257 0.09843 0 0.14288 0.054 0.04445 0.0508 0.04445 0.18415v1.1779h0.43815v-1.2668q0-0.25717-0.1143-0.37147-0.11112-0.1143-0.32067-0.1143-0.14288 0-0.254 0.0603-0.11112 0.0572-0.18098 0.18415h-0.0064v-0.20002z"/>
   <path d="m100.4 121.16v0.18098h0.4191v-2.267h-0.43815v0.71755h-6e-3q-0.0699-0.1016-0.15875-0.1524-0.0857-0.0508-0.20955-0.0508-0.26987 0-0.39687 0.21272-0.127 0.20955-0.127 0.6858t0.127 0.68263q0.127 0.20637 0.39687 0.20637 0.13335 0 0.22225-0.0476 0.0921-0.0476 0.1651-0.16828zm-0.47942-0.6731q0-0.2794 0.04127-0.4191 0.04445-0.14287 0.18732-0.14287 0.14605 0 0.18732 0.14287 0.0444 0.1397 0.0444 0.4191t-0.0444 0.42228q-0.0413 0.1397-0.18732 0.1397-0.14288 0-0.18732-0.1397-0.04127-0.14288-0.04127-0.42228z"/>
   <path d="m101.43 120.78h-0.3937v0.0603q0 0.12383 0.0286 0.22543 0.0286 0.0984 0.0984 0.16827 0.073 0.0699 0.19367 0.10478 0.12383 0.0349 0.30798 0.0349 0.1397 0 0.254-0.0286 0.11747-0.0286 0.20002-0.0953 0.0857-0.0667 0.13335-0.1651 0.0476-0.1016 0.0476-0.23813 0-0.19367-0.0857-0.3048-0.0857-0.1143-0.2921-0.18415l-0.26352-0.0889q-0.11113-0.0349-0.1524-0.0857-0.0381-0.0508-0.0381-0.1143 0-0.0921 0.0603-0.13653 0.0635-0.0476 0.14605-0.0476 0.10795 0 0.14923 0.0635 0.0444 0.0603 0.0444 0.19367h0.3937v-0.0699q0-0.23177-0.14288-0.35877-0.14287-0.127-0.44132-0.127-0.16828 0-0.28893 0.0413-0.11747 0.0413-0.19367 0.11113-0.0762 0.0698-0.11113 0.1651-0.0349 0.0921-0.0349 0.19685 0 0.18097 0.0921 0.29845 0.0921 0.1143 0.27305 0.1778l0.30798 0.11112q0.0635 0.0254 0.11112 0.0698 0.0476 0.0413 0.0476 0.12383 0 0.1016-0.0603 0.1524t-0.16192 0.0508q-0.11113 0-0.17145-0.0667-0.0572-0.0699-0.0572-0.18097z"/>
  </g>
 </g>
</svg>
