<?xml version="1.0" encoding="UTF-8"?>
<svg  fill="#231f20"  xmlns="http://www.w3.org/2000/svg" viewBox="0 0 146 20.93">
   
  <g >
    <rect fill="#fdbb11" width="88.32" height="20.93"/>
    <path fill="#fdbb11" d="M88.32,20.93h57.64V0h-57.64v20.93ZM145.6,20.41h-56.92V.53h56.92v19.88Z"/>
    <path  d="M6.05,12.57c.28,1.23,1.16,1.76,2.57,1.76s2.01-.56,2.01-1.45c0-1-.59-1.43-2.68-1.91-3.33-.78-4.15-1.99-4.15-3.64,0-2.13,1.59-3.58,4.49-3.58,3.24,0,4.54,1.75,4.71,3.53h-2.66c-.13-.75-.54-1.57-2.12-1.57-1.07,0-1.72.44-1.72,1.31s.52,1.19,2.49,1.65c3.55.84,4.33,2.16,4.33,3.88,0,2.23-1.69,3.76-4.92,3.76s-4.74-1.53-5.03-3.76h2.66Z"/>
    <rect  x="15.12" y="13.04" width="2.73" height="3.11"/>
    <path  d="M30.4,11.57c0-2.08.03-4.42.09-5.8h-.08c-.57,2.49-1.8,6.57-2.97,10.39h-2.25c-.89-3.34-2.15-7.98-2.69-10.42h-.08c.1,1.43.16,3.95.16,6.05v4.38h-2.41V3.94h3.93c.95,3.19,2.02,7.2,2.39,9.02h.02c.3-1.61,1.64-5.89,2.66-9.02h3.79v12.22h-2.55v-4.58Z"/>
    <rect  x="35.27" y="13.04" width="2.73" height="3.11"/>
    <path  d="M43.06,13.33l-.95,2.82h-2.6l4.15-12.22h3.32l4.33,12.22h-2.78l-1-2.82h-4.46ZM46.96,11.17c-.87-2.58-1.42-4.23-1.72-5.33h-.02c-.3,1.21-.91,3.12-1.61,5.33h3.34Z"/>
    <rect  x="52.92" y="13.04" width="2.73" height="3.11"/>
    <path  d="M60.53,11.26v4.89h-2.58V3.94h5.37c2.66,0,4.1,1.47,4.1,3.35,0,1.64-.89,2.53-1.78,2.89.6.22,1.52.85,1.52,3.04v.6c0,.82,0,1.76.17,2.33h-2.5c-.21-.53-.25-1.45-.25-2.74v-.18c0-1.34-.34-1.97-2.31-1.97h-1.74ZM60.53,9.16h2.22c1.45,0,2-.55,2-1.57s-.65-1.55-1.94-1.55h-2.28v3.12Z"/>
    <rect  x="69.4" y="13.04" width="2.73" height="3.11"/>
    <polygon  points="75.26 6.1 71.54 6.1 71.54 3.94 81.6 3.94 81.6 6.1 77.9 6.1 77.9 16.16 75.26 16.16 75.26 6.1"/>
    <rect  x="81.4" y="13.04" width="2.73" height="3.11"/>
    <path  d="M103.73,12c0-2.08.03-4.42.09-5.8h-.08c-.57,2.49-1.8,6.56-2.97,10.38h-2.25c-.89-3.34-2.15-7.98-2.69-10.42h-.08c.1,1.43.15,3.95.15,6.04v4.38h-2.41V4.36h3.93c.95,3.19,2.02,7.2,2.39,9.02h.02c.3-1.61,1.64-5.89,2.66-9.02h3.79v12.22h-2.55v-4.58Z"/>
    <path  d="M108.68,3.64h2.54v2.26h-2.54v-2.26ZM108.68,7.41h2.54v9.17h-2.54V7.41Z"/>
    <path  d="M113.52,9.72c0-.78,0-1.63-.02-2.31h2.46c.05.24.08.87.1,1.17.31-.58,1.05-1.38,2.66-1.38,1.84,0,3.04,1.25,3.04,3.55v5.83h-2.54v-5.55c0-1.03-.34-1.78-1.46-1.78s-1.7.6-1.7,2.22v5.11h-2.54v-6.86Z"/>
    <path  d="M132.43,3.64v10.41c0,.84,0,1.68.02,2.52h-2.44c-.05-.28-.1-.75-.12-.96-.44.72-1.23,1.17-2.6,1.17-2.32,0-3.79-1.86-3.79-4.72s1.57-4.87,4.17-4.87c1.32,0,2.03.47,2.23.88V3.64h2.54ZM126.1,12c0,1.79.7,2.76,1.94,2.76,1.75,0,1.95-1.46,1.95-2.77,0-1.57-.22-2.75-1.88-2.75-1.33,0-2.01,1.04-2.01,2.77"/>
    <path  d="M136.46,13.82c.19.73.79,1.14,1.74,1.14s1.28-.34,1.28-.89c0-.59-.39-.82-1.71-1.14-2.99-.74-3.48-1.66-3.48-2.96s.95-2.78,3.72-2.78,3.72,1.52,3.8,2.76h-2.41c-.08-.34-.31-.98-1.5-.98-.84,0-1.11.37-1.11.78,0,.46.28.68,1.77,1.02,3.06.71,3.49,1.76,3.49,3.11,0,1.52-1.16,2.9-3.95,2.9s-3.93-1.34-4.14-2.97h2.5Z"/>
  </g>
 
</svg>