<?xml version="1.0" encoding="UTF-8"?>
<svg  xmlns="http://www.w3.org/2000/svg" viewBox="0 0 69.21 54.3">
    <polygon    fill= "#e20613" fill-rule="evenodd" points="4.09 53.93 20.55 25.48 16.1 29.19 0 29.19 0 0 15.35 0 15.35 17.07 32.66 0 48.24 0 28.46 19.05 40.23 19.05 32.17 31.17 51.06 19.05 68.54 19.05 41.82 36.86 50.02 46.51 60.13 46.51 56.66 53.93 38.85 53.93 27.47 39.83 19.15 53.93 4.09 53.93"/>
  <path fill= "#1d1d1b" d="M66.01,47.89c.36,0,.71.06,1.04.17.34.11.64.28.92.5.39.3.7.68.91,1.12.22.44.32.92.32,1.42,0,.43-.08.84-.24,1.23-.16.39-.39.73-.7,1.02-.32.31-.67.54-1.06.71-.39.17-.79.25-1.21.25s-.83-.08-1.22-.25c-.39-.17-.74-.4-1.05-.71-.3-.3-.53-.64-.69-1.03-.16-.39-.24-.79-.24-1.21,0-.35.06-.7.18-1.04.12-.34.29-.66.51-.95.31-.39.68-.7,1.11-.9s.9-.31,1.41-.31ZM68.79,51.12c0-.39-.07-.75-.2-1.09-.14-.34-.34-.64-.6-.91-.26-.26-.56-.46-.9-.6s-.7-.21-1.07-.21-.73.07-1.07.2-.63.33-.88.59c-.27.27-.47.58-.62.92s-.22.7-.22,1.07.07.72.21,1.05c.14.34.34.64.6.89s.57.47.9.61.68.22,1.04.22c.38,0,.74-.07,1.08-.21.34-.14.65-.34.92-.61.26-.26.45-.55.59-.88s.21-.68.21-1.05ZM66.77,51.19l.82,1.66h-.78l-.74-1.55h-.68v1.55h-.69v-3.63h1.37c.51,0,.89.08,1.14.25s.38.41.38.74c0,.26-.07.47-.22.65-.14.17-.35.28-.61.33ZM65.98,50.87c.33,0,.57-.05.71-.14.14-.09.21-.24.21-.44,0-.22-.08-.38-.22-.48-.15-.1-.39-.15-.72-.15h-.56v1.2h.58Z"/>
</svg>